<svg width="32" height="31" viewBox="0 0 32 31" fill="none" xmlns="http://www.w3.org/2000/svg">
<path d="M8.67825 4.26954C9.34786 3.60339 10.2561 3.22916 11.203 3.22916H14.7736V10.3333H11.203C10.2561 10.3333 9.34786 9.95908 8.67825 9.29294C8.00863 8.62679 7.63245 7.72331 7.63245 6.78124C7.63245 5.83917 8.00863 4.93568 8.67825 4.26954Z" fill="white"/>
<path d="M20.2918 10.3333H16.7212V3.22916H20.2918C20.7607 3.22916 21.225 3.32103 21.6582 3.49954C22.0914 3.67805 22.485 3.9397 22.8166 4.26954C23.1481 4.59938 23.4111 4.99095 23.5906 5.42191C23.77 5.85287 23.8624 6.31477 23.8624 6.78124C23.8624 7.2477 23.77 7.7096 23.5906 8.14056C23.4111 8.57152 23.1481 8.9631 22.8166 9.29294C22.485 9.62278 22.0914 9.88442 21.6582 10.0629C21.225 10.2414 20.7607 10.3333 20.2918 10.3333Z" fill="white"/>
<path d="M20.2918 12.2708C19.8229 12.2708 19.3586 12.3627 18.9254 12.5412C18.4922 12.7197 18.0986 12.9814 17.767 13.3112C17.4354 13.641 17.1724 14.0326 16.993 14.4636C16.8136 14.8945 16.7212 15.3564 16.7212 15.8229C16.7212 16.2894 16.8136 16.7513 16.993 17.1822C17.1724 17.6132 17.4354 18.0048 17.767 18.3346C18.0986 18.6644 18.4922 18.9261 18.9254 19.1046C19.3586 19.2831 19.8229 19.375 20.2918 19.375C20.7607 19.375 21.225 19.2831 21.6582 19.1046C22.0914 18.9261 22.485 18.6644 22.8166 18.3346C23.1481 18.0048 23.4111 17.6132 23.5906 17.1822C23.77 16.7513 23.8624 16.2894 23.8624 15.8229C23.8624 15.3564 23.77 14.8945 23.5906 14.4636C23.4111 14.0326 23.1481 13.641 22.8166 13.3112C22.485 12.9814 22.0914 12.7197 21.6582 12.5412C21.225 12.3627 20.7607 12.2708 20.2918 12.2708Z" fill="white"/>
<path d="M8.67825 22.3529C9.34786 21.6867 10.256 21.3125 11.203 21.3125H14.7736V24.8646C14.7736 25.8066 14.3974 26.7101 13.7278 27.3763C13.0582 28.0424 12.15 28.4167 11.203 28.4167C10.256 28.4167 9.34786 28.0424 8.67825 27.3763C8.00863 26.7101 7.63245 25.8066 7.63245 24.8646C7.63245 23.9225 8.00863 23.019 8.67825 22.3529Z" fill="white"/>
<path d="M11.203 12.2708C10.2561 12.2708 9.34786 12.6451 8.67825 13.3112C8.00863 13.9773 7.63245 14.8808 7.63245 15.8229C7.63245 16.765 8.00863 17.6685 8.67825 18.3346C9.34786 19.0007 10.2561 19.375 11.203 19.375H14.7736V12.2708H11.203Z" fill="white"/>
</svg>
