<svg width="33" height="32" viewBox="0 0 33 32" fill="none" xmlns="http://www.w3.org/2000/svg">
<rect x="0.838501" width="32.1667" height="32" rx="3" fill="white"/>
<path d="M7.20478 2.5C5.63182 2.5 4.35669 3.76853 4.35669 5.33333C4.35669 6.89814 5.63182 8.16667 7.20478 8.16667C8.77774 8.16667 10.0529 6.89814 10.0529 5.33333C10.0529 3.76853 8.77774 2.5 7.20478 2.5Z" fill="black"/>
<path d="M4.52422 10.5C4.4317 10.5 4.35669 10.5746 4.35669 10.6667V28C4.35669 28.092 4.4317 28.1667 4.52422 28.1667H9.88534C9.97786 28.1667 10.0529 28.092 10.0529 28V10.6667C10.0529 10.5746 9.97786 10.5 9.88534 10.5H4.52422Z" fill="black"/>
<path d="M13.236 10.5C13.1435 10.5 13.0685 10.5746 13.0685 10.6667V28C13.0685 28.092 13.1435 28.1667 13.236 28.1667H18.5971C18.6897 28.1667 18.7647 28.092 18.7647 28V18.6667C18.7647 18.0036 19.0294 17.3677 19.5007 16.8989C19.972 16.4301 20.6112 16.1667 21.2777 16.1667C21.9442 16.1667 22.5834 16.4301 23.0547 16.8989C23.526 17.3677 23.7907 18.0036 23.7907 18.6667V28C23.7907 28.092 23.8657 28.1667 23.9583 28.1667H29.3194C29.4119 28.1667 29.4869 28.092 29.4869 28V16.507C29.4869 13.2713 26.6581 10.74 23.4219 11.0327C22.4239 11.1229 21.4371 11.3697 20.5157 11.7626L18.7647 12.5091V10.6667C18.7647 10.5746 18.6897 10.5 18.5971 10.5H13.236Z" fill="black"/>
</svg>
