<svg width="49" height="49" viewBox="0 0 49 49" fill="none" xmlns="http://www.w3.org/2000/svg">
<path d="M47.9323 24.5C47.9323 29.9369 46.0373 35.2055 42.5703 39.4083C39.1032 43.611 34.2786 46.4878 28.9184 47.5485C23.5583 48.6092 17.9943 47.7881 13.1744 45.2252C8.35456 42.6623 4.57711 38.5161 2.48568 33.4931C0.39425 28.4701 0.118249 22.8811 1.7047 17.6783C3.29116 12.4756 6.64191 7.98105 11.186 4.9605C15.7301 1.93994 21.1865 0.580285 26.6253 1.11319C32.0642 1.64609 37.149 4.03859 41.0135 7.88302L38.4316 10.4515C35.1645 7.20132 30.8656 5.17863 26.2674 4.7281C21.6693 4.27757 17.0563 5.42706 13.2146 7.98073C9.37286 10.5344 6.54003 14.3342 5.1988 18.7328C3.85756 23.1313 4.0909 27.8564 5.85906 32.103C7.62721 36.3496 10.8208 39.8549 14.8956 42.0217C18.9705 44.1885 23.6745 44.8826 28.2061 43.9859C32.7377 43.0892 36.8166 40.657 39.7478 37.1039C42.6789 33.5508 44.281 29.0965 44.281 24.5H47.9323Z" fill="white"/>
<path d="M15.7815 39.8059C12.2219 37.843 9.45667 34.7131 7.95682 30.9493C6.45697 27.1856 6.31535 23.0209 7.55609 19.1649C8.79683 15.3089 11.3432 12.0002 14.7612 9.80256C18.1793 7.60488 22.2576 6.65422 26.3012 7.11254C30.3448 7.57087 34.1036 9.40983 36.9372 12.3161C39.7707 15.2224 41.5035 19.0161 41.8406 23.0509C42.1776 27.0857 41.0979 31.112 38.7854 34.4436C36.4729 37.7752 33.0708 40.2062 29.1586 41.3221L28.4091 38.7219C31.7166 37.7785 34.5929 35.7233 36.5479 32.9066C38.5029 30.09 39.4158 26.6861 39.1308 23.2749C38.8459 19.8638 37.3809 16.6564 34.9853 14.1994C32.5898 11.7423 29.412 10.1876 25.9934 9.80013C22.5748 9.41265 19.1269 10.2164 16.2371 12.0744C13.3474 13.9323 11.1947 16.7296 10.1457 19.9896C9.09677 23.2495 9.21649 26.7705 10.4845 29.9525C11.7525 33.1345 14.0904 35.7806 17.0997 37.4401L15.7815 39.8059Z" fill="white"/>
<path d="M24.3099 12C27.2169 12 30.034 13.0028 32.2812 14.8374C34.5283 16.672 36.0665 19.225 36.6336 22.0614C37.2007 24.8978 36.7617 27.842 35.3914 30.3925C34.021 32.943 31.8041 34.9418 29.1184 36.0485C26.4327 37.1552 23.4443 37.3013 20.6625 36.4618C17.8806 35.6223 15.4775 33.8492 13.8624 31.4447C12.2474 29.0401 11.5204 26.1528 11.8053 23.2748C12.0903 20.3968 13.3695 17.7061 15.4251 15.6612L16.7984 17.0274C15.0606 18.7562 13.9791 21.031 13.7382 23.4642C13.4973 25.8974 14.1119 28.3383 15.4773 30.3712C16.8427 32.4041 18.8744 33.9031 21.2263 34.6129C23.5781 35.3226 26.1046 35.1991 28.3751 34.2635C30.6457 33.3278 32.52 31.6379 33.6785 29.4817C34.837 27.3255 35.2082 24.8363 34.7287 22.4383C34.2493 20.0404 32.9488 17.882 31.049 16.331C29.1492 14.7799 26.7676 13.9322 24.3099 13.9322V12Z" fill="white"/>
<path d="M16.801 20.4442C17.7443 18.716 19.2607 17.3666 21.0919 16.6259C22.9231 15.8853 24.9558 15.7992 26.8436 16.3824C28.7315 16.9655 30.3577 18.1818 31.4451 19.824C32.5326 21.4662 33.014 23.4328 32.8074 25.3885C32.6007 27.3443 31.7188 29.1682 30.3119 30.5496C28.905 31.931 27.0602 32.7844 25.0917 32.9644C23.1232 33.1443 21.153 32.6397 19.5166 31.5365C17.8802 30.4332 16.6789 28.7997 16.1175 26.9142L17.5019 26.5062C17.9684 28.0731 18.9667 29.4306 20.3265 30.3474C21.6864 31.2642 23.3238 31.6836 24.9596 31.534C26.5954 31.3845 28.1285 30.6753 29.2977 29.5274C30.4669 28.3794 31.1997 26.8636 31.3714 25.2384C31.5432 23.6131 31.1431 21.9789 30.2394 20.6142C29.3357 19.2495 27.9843 18.2387 26.4155 17.7541C24.8466 17.2695 23.1574 17.341 21.6357 17.9565C20.1139 18.572 18.8537 19.6934 18.0699 21.1295L16.801 20.4442Z" fill="white"/>
<path d="M28.049 27.0328C27.46 27.8933 26.5893 28.5241 25.5852 28.8176C24.5811 29.1111 23.5058 29.0492 22.5425 28.6424C21.5792 28.2356 20.7874 27.5091 20.3022 26.5867C19.8169 25.6643 19.6682 24.603 19.8813 23.5837C20.0944 22.5645 20.6562 21.6502 21.4709 20.9968C22.2856 20.3434 23.3029 19.9912 24.3494 20.0003C25.3959 20.0094 26.4068 20.3792 27.21 21.0466C28.0131 21.7141 28.5588 22.638 28.754 23.6608L27.9221 23.8179C27.7634 22.9865 27.3199 22.2356 26.6671 21.6931C26.0143 21.1506 25.1926 20.8501 24.342 20.8427C23.4914 20.8353 22.6646 21.1215 22.0024 21.6526C21.3402 22.1837 20.8835 22.9268 20.7103 23.7553C20.5371 24.5838 20.658 25.4464 21.0524 26.1961C21.4468 26.9458 22.0903 27.5363 22.8733 27.867C23.6563 28.1976 24.5304 28.2479 25.3465 28.0094C26.1626 27.7708 26.8703 27.2581 27.349 26.5587L28.049 27.0328Z" fill="white"/>
<path d="M23.5125 22.1292C24.0639 21.9457 24.6622 21.9581 25.2054 22.1642C25.7486 22.3702 26.2032 22.7574 26.4917 23.2595C26.7802 23.7617 26.8848 24.3478 26.7876 24.9181C26.6904 25.4883 26.3974 26.0074 25.9586 26.3868C25.5198 26.7663 24.9624 26.9826 24.3812 26.999C23.8 27.0154 23.2311 26.8309 22.7714 26.4768C22.3117 26.1227 21.9896 25.621 21.8601 25.0571C21.7305 24.4933 21.8015 23.9022 22.0609 23.3846L22.9422 23.8217C22.7845 24.1365 22.7413 24.4959 22.8201 24.8388C22.8989 25.1817 23.0947 25.4868 23.3743 25.7022C23.6539 25.9175 23.9998 26.0297 24.3533 26.0198C24.7067 26.0098 25.0457 25.8782 25.3126 25.6475C25.5794 25.4167 25.7576 25.101 25.8167 24.7543C25.8758 24.4075 25.8122 24.051 25.6368 23.7456C25.4613 23.4403 25.1849 23.2048 24.8545 23.0795C24.5241 22.9542 24.1603 22.9467 23.825 23.0583L23.5125 22.1292Z" fill="white"/>
<ellipse cx="24.3099" cy="24.5" rx="0.502604" ry="0.5" transform="rotate(-180 24.3099 24.5)" fill="white"/>
</svg>
