<svg width="33" height="32" viewBox="0 0 33 32" fill="none" xmlns="http://www.w3.org/2000/svg">
<path fill-rule="evenodd" clip-rule="evenodd" d="M16.6041 1C8.08832 1 1.19092 7.86167 1.19092 16.3333C1.19092 23.1183 5.60294 28.8492 11.7297 30.8808C12.5003 31.015 12.7893 30.555 12.7893 30.1525C12.7893 29.7883 12.7701 28.5808 12.7701 27.2967C8.89752 28.0058 7.89566 26.3575 7.58739 25.495C7.414 25.0542 6.6626 23.6933 6.00754 23.3292C5.46808 23.0417 4.69742 22.3325 5.98828 22.3133C7.20206 22.2942 8.06906 23.425 8.35805 23.885C9.74524 26.2042 11.9609 25.5525 12.8471 25.15C12.982 24.1533 13.3866 23.4825 13.8297 23.0992C10.4003 22.7158 6.81673 21.3933 6.81673 15.5283C6.81673 13.8608 7.414 12.4808 8.39659 11.4075C8.24245 11.0242 7.70299 9.4525 8.55072 7.34417C8.55072 7.34417 9.84157 6.94167 12.7893 8.91583C14.0224 8.57083 15.3325 8.39833 16.6426 8.39833C17.9528 8.39833 19.2629 8.57083 20.4959 8.91583C23.4437 6.9225 24.7346 7.34417 24.7346 7.34417C25.5823 9.4525 25.0428 11.0242 24.8887 11.4075C25.8713 12.4808 26.4686 13.8417 26.4686 15.5283C26.4686 21.4125 22.8657 22.7158 19.4363 23.0992C19.995 23.5783 20.4767 24.4983 20.4767 25.9358C20.4767 27.9867 20.4574 29.635 20.4574 30.1525C20.4574 30.555 20.7464 31.0342 21.5171 30.8808C27.6053 28.8492 32.0173 23.0992 32.0173 16.3333C32.0173 7.86167 25.1199 1 16.6041 1Z" fill="white"/>
</svg>
